HIERARCHY
ROOT pelvis
{
  OFFSET 0 100 0
  CHANNELS 6 Xposition Yposition Zposition Zrotation Xrotation Yrotation
  JOINT pelvis_right_femur
  {
    OFFSET -10.78128 -3.44521 -0.5502486
    CHANNELS 3 Zrotation Xrotation Yrotation
    JOINT right_femur_tibia
    {
      OFFSET -0.8047443 -44.0398 -0.1307829
      CHANNELS 3 Zrotation Xrotation Yrotation
      JOINT right_tibia_foot
      {
        OFFSET 3.006224 -47.83518 -5
        CHANNELS 3 Zrotation Xrotation Yrotation
        End Site
        {
          OFFSET 0 -5 15
        }
      }
    }
  }
  JOINT pelvis_left_femur
  {
    OFFSET 10.78128 -3.44521 -0.5502486
    CHANNELS 3 Zrotation Xrotation Yrotation
    JOINT left_femur_tibia
    {
      OFFSET 0.8047443 -44.0398 -0.1307829
      CHANNELS 3 Zrotation Xrotation Yrotation
      JOINT left_tibia_foot
      {
        OFFSET -4.370144 -48.10324 -4.275266
        CHANNELS 3 Zrotation Xrotation Yrotation
        End Site
        {
          OFFSET 0 -5 15
        }
      }
    }
  }
  JOINT pelvis_spine1
  {
    OFFSET 0 6.468898 -3.129235
    CHANNELS 3 Zrotation Xrotation Yrotation
    JOINT spine1
    {
      OFFSET 0 23.15396 4.99043
      CHANNELS 3 Zrotation Xrotation Yrotation
      JOINT spine2
      {
        OFFSET 0 20.79997 -5.064912
        CHANNELS 3 Zrotation Xrotation Yrotation
        JOINT neck
        {
          OFFSET 0 14.38658 9.616178
          CHANNELS 3 Zrotation Xrotation Yrotation
          End Site
          {
            OFFSET 0 20 0
          }
        }
      }
      JOINT right_manubrium
      {
        OFFSET -5.722621 16.35077 3.967754
        CHANNELS 3 Zrotation Xrotation Yrotation
        JOINT right_clavicle
        {
          OFFSET -13.16364 1.694482 -4.693211
          CHANNELS 3 Zrotation Xrotation Yrotation
          JOINT right_humerus
          {
            OFFSET -28.5034 -0.3100689 -2.792744
            CHANNELS 3 Zrotation Xrotation Yrotation
            JOINT right_radius
            {
              OFFSET -25.15693 0.02248979 -1.271978
              CHANNELS 3 Zrotation Xrotation Yrotation
              End Site
              {
                OFFSET -15 0 0
              }
            }
          }
        }
      }
      JOINT left_manubrium
      {
        OFFSET 5.722621 16.35077 3.967754
        CHANNELS 3 Zrotation Xrotation Yrotation
        JOINT left_clavicle
        {
          OFFSET 13.16364 1.694482 -4.693211
          CHANNELS 3 Zrotation Xrotation Yrotation
          JOINT left_humerus
          {
            OFFSET 29.39168 -1.063119 -2.237045
            CHANNELS 3 Zrotation Xrotation Yrotation
            JOINT left_radius
            {
              OFFSET 24.59957 -0.9528479 0.9047498
              CHANNELS 3 Zrotation Xrotation Yrotation
              End Site
              {
                OFFSET 15 -0 -0
              }
            }
          }
        }
      }
    }
  }
}
MOTION
Frames: 23
Frame Time: 0.0416666666667
0 103.5113 0 -0.2307234 -2.613991 -0.3650628 0.403604 -2.823126 11.64014 -0 21.89925 -0 -5.084832 -15.52949 -2.917526 -3.755186 7.582268 -16.70456 -0 8.397772 -0 8.653261 -17.5936 23.47326 -2.534869 -4.882862 6.430666 3.906571 9.134926 -8.16307 0.7145549 22.98823 7.121799 3.530012 -25.21627 7.724792 10.82201 -18.16546 13.69175 76.99985 28.99161 -19.11216 -0 0 20.3709 -3.979509 2.086305 2.469109 3.777722 -12.50163 -1.050089 -91.62333 36.53831 19.5077 0 0 -18.20998 -9.004295 9.792703 23.47162
0.63827 103.2834 0.9283408 -0.2408848 -2.621711 -0.4033199 0.7294134 -5.488011 12.15378 -0 27.95248 -0 -5.10778 -15.20006 -3.763866 -4.100332 8.325695 -16.52786 -0 8.10503 -0 8.653531 -18.17099 23.33117 -2.68778 -4.45908 6.315617 3.677059 9.147126 -8.203267 0.6610658 22.63553 7.594935 3.852708 -25.09854 7.994255 10.71288 -18.09577 13.50156 76.71917 28.37802 -18.90818 -0 0 20.3155 -3.677626 1.298215 3.349884 3.984275 -13.04377 -0.7550646 -91.95479 36.44117 20.53929 0 0 -18.18819 -8.347438 8.995925 23.30147
1.266266 103.2098 2.007549 -0.25351 -2.632085 -0.45051 1.261119 -8.749731 12.15049 -0 34.10814 -0 -5.221593 -14.38605 -4.8816 -4.417069 9.302916 -16.35128 -0 7.560328 -0 8.486225 -18.61855 23.11361 -2.956671 -3.811662 6.04606 3.548495 9.217612 -8.389737 0.5374984 22.1546 8.057151 4.150248 -25.02065 8.1482 10.74682 -18.08114 13.28137 76.44047 27.70339 -18.75005 -0 0 20.21751 -3.245137 0.4380058 4.315802 4.114648 -13.3281 -0.5729207 -92.12009 36.17034 21.30753 0 0 -18.21414 -7.482361 8.182355 22.95383
1.920651 103.1838 3.331747 -0.2666014 -2.635141 -0.4716615 1.95607 -12.47477 11.67094 -0 38.85917 -0 -5.528924 -13.75936 -5.816192 -4.720618 10.52864 -16.11662 -0 6.778248 -0 8.14973 -18.94522 22.85412 -3.198267 -2.968414 5.655916 3.788008 9.201181 -8.752798 0.2924121 21.48204 8.485126 4.358969 -24.92894 8.119995 11.36134 -18.23147 13.11594 76.41414 26.92713 -18.51692 -0 0 20.21283 -2.662621 -0.4868849 5.428882 4.079617 -13.43736 -0.5221677 -92.26171 35.7201 21.67939 0 0 -18.54698 -6.409858 7.381668 22.39529
2.42738 103.2783 4.775934 -0.2744514 -2.60338 -0.3671212 2.791671 -15.96458 10.74172 -0 42.02431 -0 -5.963753 -13.00041 -6.324714 -4.973144 11.8543 -15.82827 -0 5.839506 -0 7.670022 -19.21147 22.53099 -3.564463 -2.300944 5.450293 3.764222 9.066816 -8.927893 0.1348405 20.90572 8.773257 4.620649 -24.64213 7.936123 11.38364 -18.08862 12.8202 76.40175 26.39099 -18.70716 -0 0 19.81529 -2.289602 -1.139839 6.262078 4.359915 -14.15932 -0.2382131 -91.6722 35.24443 21.26975 0 0 -19.0974 -5.098679 6.611958 21.74295
2.903645 103.3002 6.480701 -0.2850594 -2.589473 -0.3294039 3.424518 -19.36496 9.512588 -0 42.01099 -0 -6.33045 -11.96474 -6.205019 -5.036987 13.37185 -15.5068 -0 4.982214 -0 7.068891 -19.56722 22.00031 -3.831166 -1.309113 5.323252 3.847852 9.121388 -9.075141 0.3773779 20.47535 8.89144 4.926711 -24.94341 8.155307 11.09854 -17.92812 12.5277 76.58591 26.05585 -18.95272 -0 0 19.37887 -2.108021 -1.531738 6.922662 4.471928 -14.64919 -0.06653072 -91.22391 34.62508 20.67378 0 0 -19.90825 -3.676715 5.829939 20.84932
3.297871 103.2066 8.196747 -0.2851905 -2.524884 -0.1062156 3.995823 -22.53067 8.485965 -0 39.20699 -0 -6.699965 -10.60326 -5.541325 -5.087253 14.80581 -15.14653 -0 4.16828 -0 6.439567 -20.07436 21.32537 -4.159721 -0.4277027 5.266477 3.687953 9.040133 -9.112333 0.4154478 20.05062 8.915135 5.073518 -25.01358 8.04072 10.33464 -17.63075 12.25099 76.72485 25.94487 -19.35288 -0 0 18.73189 -2.147466 -1.674495 7.3857 4.948356 -15.48111 0.1673887 -90.30556 33.90983 19.29267 0 0 -21.40733 -2.022126 5.101267 19.67567
3.860376 102.9076 10.61369 -0.2676336 -2.370635 0.444347 3.915565 -25.12539 7.933375 -0 35.25708 -0 -7.223951 -9.003855 -4.384261 -5.201815 16.46217 -14.7419 -0 3.582867 -0 5.80528 -20.74961 20.5056 -4.176715 0.4425118 5.127141 4.254057 8.694391 -9.308467 0.4543629 19.78449 9.046782 5.135627 -25.53111 8.282857 10.17751 -17.27812 11.71734 77.33987 25.73568 -19.9067 -0 0 18.02167 -2.04961 -1.821075 7.879541 5.272506 -16.11036 0.2847932 -89.66722 33.05474 17.7854 0 0 -23.50322 -0.3161685 4.349797 18.21114
4.367406 102.4165 13.13957 -0.2487591 -2.216684 0.9951748 4.096618 -27.42402 7.112285 -0 29.37193 -0 -7.574683 -7.394975 -3.513414 -5.360078 17.97223 -14.22702 -0 3.218783 -0 5.16219 -21.54815 19.578 -4.164786 1.276695 5.061346 4.539308 8.316328 -9.348546 0.4969659 19.70407 9.091395 5.085854 -26.11401 8.554473 9.484614 -16.83325 11.22806 77.87815 25.76324 -20.50774 -0 0 17.14739 -2.188862 -1.722389 8.200472 5.911203 -17.14321 0.5200578 -88.38883 32.06144 15.71233 0 0 -25.81146 1.577451 3.580969 16.66841
4.748135 101.7431 15.98758 -0.2264971 -2.046989 1.604157 4.151392 -29.27072 6.244714 -0 23.30838 -0 -7.986505 -6.213514 -2.897841 -5.331922 19.67287 -13.84464 -0 3.453638 -0 4.425801 -22.30482 18.43501 -4.045803 2.215803 4.948854 4.748795 8.156056 -9.433319 0.5962665 19.70001 9.048291 4.978314 -26.83884 8.873796 8.860851 -16.58569 10.88581 78.54954 25.98315 -20.89961 -0 0 16.25499 -2.569481 -1.390605 8.393678 6.230232 -17.90335 0.5433044 -87.53114 31.15378 14.00675 0 0 -27.79998 3.098273 2.914788 15.27683
5.195178 100.8901 19.34681 -0.2111161 -1.919564 2.062093 4.502429 -30.48838 5.500253 -0 18.27513 -0 -8.317134 -5.445765 -2.512622 -5.365974 21.09299 -13.44013 -0 4.311781 -0 3.52655 -22.88536 17.18584 -3.859582 2.798831 4.667024 4.891643 8.057041 -9.652587 0.553465 19.72019 9.119334 4.843243 -27.21976 9.141147 8.218316 -16.27497 10.45806 79.26351 26.32741 -21.39382 -0 0 15.38875 -3.218141 -0.8244654 8.492956 6.406415 -18.5589 0.4267567 -86.82639 30.35094 12.58643 0 0 -29.36479 4.277736 2.366728 14.06163
5.576115 100.2029 23.2262 -0.178423 -1.688733 2.899679 4.691953 -30.90482 4.883186 -0 15.72168 -0 -8.829555 -4.875841 -2.434651 -5.508478 22.5905 -12.59037 -0 6.040648 -0 2.397316 -22.95798 15.87686 -3.655436 3.216403 4.311346 5.020848 7.939119 -9.915737 0.5279041 19.75475 9.212951 4.783574 -27.53198 9.38373 7.733646 -15.94804 10.10627 80.03517 26.85493 -21.91697 -0 0 14.37388 -4.125365 -0.01972993 8.433188 6.304588 -19.1726 0.2082072 -86.23242 29.65008 11.53709 0 0 -30.28784 5.12265 1.914989 13.09831
5.930559 99.58595 27.7113 -0.1550966 -1.510803 3.546454 5.120945 -30.25103 4.474234 -0 15.74778 -0 -9.505418 -4.563127 -2.662058 -5.535228 23.4702 -11.83105 -0 9.2422 -0 0.9215307 -22.11462 14.40456 -3.211581 3.062641 3.941098 4.994008 7.838224 -10.10706 0.4732952 19.9206 9.395151 4.792041 -27.6959 9.657712 6.972635 -15.434 9.898775 80.82175 27.58685 -22.61555 -0 0 13.10434 -5.289568 1.024498 8.189861 5.931989 -19.5136 -0.2366944 -85.87161 29.10087 11.08192 0 0 -30.44645 5.661775 1.558393 12.39818
6.317475 99.40364 32.78163 -0.1279498 -1.300609 4.31088 5.356889 -28.61589 4.456713 -0 17.58004 -0 -10.3058 -4.456487 -2.764471 -5.600881 23.60618 -10.86128 -0 14.18984 -0 -0.879302 -19.81601 12.80081 -2.737426 2.820192 3.488703 4.908459 7.710135 -10.39139 0.4084638 20.01595 9.557416 4.799739 -27.70953 9.849766 6.420141 -15.06396 9.748012 81.64611 28.29984 -23.09841 -0 0 12.02327 -6.501771 2.106411 8.07288 5.350575 -19.61585 -0.7156034 -85.86065 28.69681 11.24492 0 0 -29.92388 5.882553 1.293741 11.95728
6.790942 99.60088 38.28667 -0.1278819 -1.280995 4.384649 5.528436 -26.55434 4.735497 -0 19.62183 -0 -11.08238 -4.956248 -2.87461 -5.713653 22.61937 -10.13543 -0 21.35072 -0 -2.785592 -15.87892 10.95657 -2.117063 2.451485 3.22331 4.831988 7.633313 -10.48154 0.1701716 20.00313 9.700346 4.65874 -27.50949 9.842417 6.090073 -14.73197 9.730673 82.50202 28.93108 -23.35843 -0 0 11.09717 -7.558398 3.122136 8.055209 4.757528 -19.41885 -1.113486 -86.23642 28.36188 12.02612 0 0 -28.94936 5.896826 1.071323 11.68632
7.328818 100.1422 44.17871 -0.152246 -1.43376 3.835342 5.690569 -23.58597 4.973377 -0 20.88649 -0 -11.75485 -6.206338 -3.036705 -6.1598 19.82836 -9.122294 -0 31.08741 -0 -4.27198 -10.86759 9.454957 -1.425073 1.930474 3.567197 4.67188 7.777326 -10.01923 -0.06288345 20.00433 9.741106 4.504944 -27.2578 9.67568 5.767132 -14.33218 10.03572 83.17777 29.50433 -23.3081 -0 0 10.46151 -8.509513 4.061505 8.151442 4.170457 -18.89025 -1.425754 -87.01404 28.09721 13.45116 0 0 -27.59762 5.712059 0.8484685 11.54611
7.774857 100.8251 49.94769 -0.1974365 -1.708051 2.847795 5.845922 -19.78207 5.131003 -0 21.01322 -0 -12.2161 -7.991084 -3.032779 -6.351606 14.77616 -7.996377 -0 42.18979 -0 -4.762966 -6.573781 8.729416 -0.9376415 1.337169 4.254533 4.468845 8.023906 -9.433863 -0.3449526 20.37666 9.706324 4.338538 -26.82801 9.353817 5.704855 -14.36864 10.45497 83.35973 30.08317 -22.61582 -0 0 10.22128 -9.438092 4.908435 8.395756 3.45169 -18.6123 -1.729384 -87.64173 27.85599 14.96092 0 0 -25.97005 5.393294 0.6221573 11.55196
8.221117 101.7038 55.3722 -0.2487298 -1.99962 1.800693 5.835638 -15.43766 5.230783 -0 19.90649 -0 -12.32997 -9.77282 -2.943908 -5.112069 7.051725 -7.140984 -0 52.10794 -0 -4.119708 -5.106017 9.451433 -0.622609 0.848455 5.341003 4.3686 8.327853 -8.731777 -0.6040053 20.84994 9.550098 4.178746 -26.38042 8.872539 5.839255 -14.7653 10.99711 82.96622 30.68922 -21.34776 -0 0 10.22479 -10.39406 5.67663 8.728061 2.833298 -18.47193 -2.040021 -88.15657 27.5833 16.44274 0 0 -24.46125 5.027505 0.4322399 11.5332
8.531979 102.8072 60.67936 -0.2752411 -2.152102 1.260956 5.632731 -10.76458 5.146883 -0 17.75916 -0 -12.04692 -11.25516 -2.810065 -3.613928 -1.506468 -5.929766 -0 59.77085 -0 -3.258834 -5.013037 10.83175 -0.4548069 0.2743632 6.545792 4.231184 8.665924 -7.943384 -0.8728844 21.30746 9.259993 3.994104 -25.91247 8.178043 6.030267 -15.20032 11.3724 82.39359 31.1854 -19.85782 -0 0 10.43156 -11.38737 6.342375 9.138089 2.456529 -18.31739 -2.001888 -88.72653 27.25345 18.06724 0 0 -23.14409 4.693961 0.306617 11.40769
8.87385 103.8275 65.60232 -0.2729605 -2.156729 1.256446 5.270939 -6.137526 4.824295 -0 15.00668 -0 -11.43652 -12.44918 -2.601987 -1.7521 -10.30447 -4.845866 -0 60.82611 -0 -2.479116 -5.846809 12.3296 -0.4238927 0.06900267 7.388537 3.923075 8.809291 -7.298783 -1.029126 21.56927 8.845178 3.829141 -25.38653 7.402363 5.90216 -15.86142 11.6987 81.58928 31.58987 -17.86126 -0 0 11.15264 -12.48935 6.902534 9.729017 2.495239 -18.24313 -1.938944 -89.19931 26.886 19.52191 0 0 -22.17665 4.33654 0.2374172 11.23379
9.203993 104.4482 70.39715 -0.2418859 -2.00444 1.814981 4.890959 -1.799443 4.348224 -0 12.25767 -0 -10.63083 -13.57085 -2.352957 0.2655991 -17.57339 -3.40552 -0 56.06113 -0 -1.9638 -6.644061 14.13689 -0.5244758 0.01926903 7.834867 3.477762 8.740438 -6.73018 -1.049595 21.54417 8.406155 3.711095 -24.83976 6.71165 5.538714 -16.7347 11.98825 80.60082 31.9082 -15.43982 -0 0 12.39809 -13.72896 7.387294 10.53018 2.802654 -18.14641 -1.879196 -89.65539 26.5049 20.95381 0 0 -21.35952 3.943465 0.2264492 11.07361
9.608653 104.5938 75.30682 -0.2264524 -1.924317 2.105474 4.562543 2.438047 3.734995 -0 9.900366 -0 -9.718242 -14.80208 -2.007894 2.456042 -22.83552 -2.118527 -0 48.01209 -0 -1.714524 -6.698878 15.75438 -0.633156 -0.0135717 8.18193 2.893476 8.76075 -6.021474 -0.9601268 21.37161 8.000696 3.667051 -24.31004 6.154277 5.116244 -17.4368 12.16058 79.7881 32.11349 -13.09712 -0 0 13.80932 -14.97481 7.828741 11.38197 3.08876 -18.03856 -1.708014 -90.02617 26.12336 22.21232 0 0 -20.55802 3.524514 0.271693 10.94608
10.10603 104.1578 80.36481 -0.2207735 -1.890138 2.226096 4.262932 6.433827 3.155994 -0 8.273857 -0 -8.776415 -16.23379 -1.670487 4.491479 -26.18187 -0.7843447 -0 37.56045 -0 -1.712187 -6.142177 16.87308 -0.8035734 0.1254072 8.36028 2.296393 8.685073 -5.367699 -0.8538096 21.09278 7.699315 3.66043 -23.83104 5.74172 4.624966 -18.46087 12.31415 78.58556 32.18024 -10.42111 -0 0 15.43872 -16.33505 8.176845 12.26185 3.471702 -17.88718 -1.631989 -90.17491 25.80772 23.32612 0 0 -19.50722 3.117144 0.3649727 10.98374
